<?xml version="1.0" encoding="UTF-8"?>
<svg width="700px" height="564px" viewBox="0 0 700 564" version="1.1" xmlns="http://www.w3.org/2000/svg" xmlns:xlink="http://www.w3.org/1999/xlink">
    <!-- Generator: Sketch 53.1 (72631) - https://sketchapp.com -->
    <title>Slice</title>
    <desc>Created with Sketch.</desc>
    <g id="Page-1" stroke="none" stroke-width="1" fill="none" fill-rule="evenodd">
        <g id="pitch">
            <rect id="rect1872" fill="#00A000" x="0" y="0" width="700" height="1060"></rect>
            <g id="g3772" transform="translate(30.000000, 30.000000)">
                <path d="M326.000004,499.999991 C326.001281,502.144436 324.857967,504.126531 323.001036,505.199123 C321.144105,506.271714 318.855902,506.271714 316.998971,505.199123 C315.14204,504.126531 313.998726,502.144436 314.000003,499.999991 C313.998726,497.855546 315.14204,495.87345 316.998971,494.800859 C318.855902,493.728268 321.144105,493.728268 323.001036,494.800859 C324.857967,495.87345 326.001281,497.855546 326.000004,499.999991 L326.000004,499.999991 Z" id="path11672" fill="#FFFFFF"></path>
                <path d="M325.000002,107.647067 C325.001067,109.434104 324.048305,111.085851 322.500862,111.979677 C320.953419,112.873504 319.046584,112.873504 317.499141,111.979677 C315.951698,111.085851 314.998936,109.434104 315,107.647067 C314.998936,105.860029 315.951698,104.208282 317.499141,103.314456 C319.046584,102.42063 320.953419,102.42063 322.500862,103.314456 C324.048305,104.208282 325.001067,105.860029 325.000002,107.647067 L325.000002,107.647067 Z" id="path11674" fill="#FFFFFF"></path>
                <path d="M412.53661,500.00004 C412.53661,551.08025 371.08021,592.53666 320,592.53666 C268.9198,592.53666 227.46341,551.08025 227.46341,500.00004 C227.46341,448.91984 268.9198,407.46342 320,407.46342 C371.08021,407.46342 412.53661,448.91984 412.53661,500.00004 Z" id="path1905" stroke="#FFFFFF" stroke-width="5"></path>
                <path d="M0.35101,499.99999 C639.64899,499.99999 639.64899,499.99999 639.64899,499.99999" id="path1903" stroke="#FFFFFF" stroke-width="5"></path>
                <polyline id="path2803" stroke="#FFFFFF" stroke-width="5" points="407.58625 0.010439 410.05478 0.010439 410.05478 51.92 229.94522 51.92 229.94522 0.010439 229.94522 0.010439 232.47625 0.010439"></polyline>
                <polygon id="path1899" stroke="#FFFFFF" stroke-width="5" points="2e-06 -9e-06 640 -9e-06 640 1000 2e-06 1000"></polygon>
                <polyline id="path2817" stroke="#FFFFFF" stroke-width="5" points="517.00071 0.007021 519.53198 0.007021 519.53198 160.871 120.468 160.871 120.468 0.007021 120.468 0.007021 122.96801 0.007021"></polyline>
                <path d="M246.28681,160.92095 L244.24579,160.93251 L244.24579,160.93251 C260.99027,184.77544 288.66859,200.37 319.99579,200.37001 C351.32461,200.37001 379.03282,184.77753 395.77704,160.93251 L393.73859,160.93251" id="path2832" stroke="#FFFFFF" stroke-width="5"></path>
                <path d="M638.56428,13.790848 C631.6039,13.968275 625.8144,8.32261 625.64128,1.188914 C625.63855,1.076176 625.63739,0.980805 625.63738,0.868029" id="path1893" stroke="#FFFFFF" stroke-width="5"></path>
                <path d="M14.297238,0.990225 C14.474665,7.950607 8.829,13.740112 1.695304,13.913228 C1.582566,13.915963 1.487195,13.917122 1.374419,13.917127" id="path1891" stroke="#FFFFFF" stroke-width="5"></path>
            </g>
        </g>
    </g>
</svg>